<svg id="visual" viewBox="0 0 960 540" width="960" height="540" xmlns="http://www.w3.org/2000/svg" xmlns:xlink="http://www.w3.org/1999/xlink" version="1.1"><rect x="0" y="0" width="960" height="540" fill="#001220"></rect><defs><linearGradient id="grad1_0" x1="43.8%" y1="100%" x2="100%" y2="0%"><stop offset="14.444444444444446%" stop-color="#fbae3c" stop-opacity="1"></stop><stop offset="85.55555555555554%" stop-color="#fbae3c" stop-opacity="1"></stop></linearGradient></defs><defs><linearGradient id="grad1_1" x1="43.8%" y1="100%" x2="100%" y2="0%"><stop offset="14.444444444444446%" stop-color="#fbae3c" stop-opacity="1"></stop><stop offset="85.55555555555554%" stop-color="#eb7458" stop-opacity="1"></stop></linearGradient></defs><defs><linearGradient id="grad1_2" x1="43.8%" y1="100%" x2="100%" y2="0%"><stop offset="14.444444444444446%" stop-color="#b84e6c" stop-opacity="1"></stop><stop offset="85.55555555555554%" stop-color="#eb7458" stop-opacity="1"></stop></linearGradient></defs><defs><linearGradient id="grad1_3" x1="43.8%" y1="100%" x2="100%" y2="0%"><stop offset="14.444444444444446%" stop-color="#b84e6c" stop-opacity="1"></stop><stop offset="85.55555555555554%" stop-color="#713c69" stop-opacity="1"></stop></linearGradient></defs><defs><linearGradient id="grad1_4" x1="43.8%" y1="100%" x2="100%" y2="0%"><stop offset="14.444444444444446%" stop-color="#2d2b4c" stop-opacity="1"></stop><stop offset="85.55555555555554%" stop-color="#713c69" stop-opacity="1"></stop></linearGradient></defs><defs><linearGradient id="grad1_5" x1="43.8%" y1="100%" x2="100%" y2="0%"><stop offset="14.444444444444446%" stop-color="#2d2b4c" stop-opacity="1"></stop><stop offset="85.55555555555554%" stop-color="#001220" stop-opacity="1"></stop></linearGradient></defs><defs><linearGradient id="grad2_0" x1="0%" y1="100%" x2="56.3%" y2="0%"><stop offset="14.444444444444446%" stop-color="#fbae3c" stop-opacity="1"></stop><stop offset="85.55555555555554%" stop-color="#fbae3c" stop-opacity="1"></stop></linearGradient></defs><defs><linearGradient id="grad2_1" x1="0%" y1="100%" x2="56.3%" y2="0%"><stop offset="14.444444444444446%" stop-color="#eb7458" stop-opacity="1"></stop><stop offset="85.55555555555554%" stop-color="#fbae3c" stop-opacity="1"></stop></linearGradient></defs><defs><linearGradient id="grad2_2" x1="0%" y1="100%" x2="56.3%" y2="0%"><stop offset="14.444444444444446%" stop-color="#eb7458" stop-opacity="1"></stop><stop offset="85.55555555555554%" stop-color="#b84e6c" stop-opacity="1"></stop></linearGradient></defs><defs><linearGradient id="grad2_3" x1="0%" y1="100%" x2="56.3%" y2="0%"><stop offset="14.444444444444446%" stop-color="#713c69" stop-opacity="1"></stop><stop offset="85.55555555555554%" stop-color="#b84e6c" stop-opacity="1"></stop></linearGradient></defs><defs><linearGradient id="grad2_4" x1="0%" y1="100%" x2="56.3%" y2="0%"><stop offset="14.444444444444446%" stop-color="#713c69" stop-opacity="1"></stop><stop offset="85.55555555555554%" stop-color="#2d2b4c" stop-opacity="1"></stop></linearGradient></defs><defs><linearGradient id="grad2_5" x1="0%" y1="100%" x2="56.3%" y2="0%"><stop offset="14.444444444444446%" stop-color="#001220" stop-opacity="1"></stop><stop offset="85.55555555555554%" stop-color="#2d2b4c" stop-opacity="1"></stop></linearGradient></defs><g transform="translate(960, 540)"><path d="M-486 0C-479.3 -63.6 -472.5 -127.2 -449 -186C-425.5 -244.8 -385.2 -298.7 -336.6 -336.6C-287.9 -374.5 -230.9 -396.3 -173.4 -418.5C-115.9 -440.7 -57.9 -463.4 0 -486L0 0Z" fill="#131f37"></path><path d="M-405 0C-399.4 -53 -393.8 -106 -374.2 -155C-354.6 -204 -321 -248.9 -280.5 -280.5C-239.9 -312.1 -192.4 -330.2 -144.5 -348.8C-96.5 -367.3 -48.3 -386.1 0 -405L0 0Z" fill="#4d345e"></path><path d="M-324 0C-319.5 -42.4 -315 -84.8 -299.3 -124C-283.7 -163.2 -256.8 -199.1 -224.4 -224.4C-191.9 -249.6 -153.9 -264.2 -115.6 -279C-77.2 -293.8 -38.6 -308.9 0 -324L0 0Z" fill="#96446e"></path><path d="M-243 0C-239.6 -31.8 -236.3 -63.6 -224.5 -93C-212.8 -122.4 -192.6 -149.3 -168.3 -168.3C-144 -187.2 -115.4 -198.1 -86.7 -209.3C-57.9 -220.4 -29 -231.7 0 -243L0 0Z" fill="#d55e64"></path><path d="M-162 0C-159.8 -21.2 -157.5 -42.4 -149.7 -62C-141.8 -81.6 -128.4 -99.6 -112.2 -112.2C-96 -124.8 -77 -132.1 -57.8 -139.5C-38.6 -146.9 -19.3 -154.5 0 -162L0 0Z" fill="#f88f4a"></path><path d="M-81 0C-79.9 -10.6 -78.8 -21.2 -74.8 -31C-70.9 -40.8 -64.2 -49.8 -56.1 -56.1C-48 -62.4 -38.5 -66 -28.9 -69.8C-19.3 -73.5 -9.7 -77.2 0 -81L0 0Z" fill="#fbae3c"></path></g><g transform="translate(0, 0)"><path d="M486 0C441.5 46.2 397.1 92.5 381.6 158C366 223.6 379.5 308.5 343.7 343.7C307.8 378.8 222.8 364.3 157.3 379.7C91.8 395.2 45.9 440.6 0 486L0 0Z" fill="#131f37"></path><path d="M405 0C367.9 38.5 330.9 77.1 318 131.7C305 186.3 316.2 257.1 286.4 286.4C256.5 315.7 185.6 303.6 131.1 316.4C76.5 329.3 38.2 367.1 0 405L0 0Z" fill="#4d345e"></path><path d="M324 0C294.4 30.8 264.7 61.7 254.4 105.4C244 149.1 253 205.7 229.1 229.1C205.2 252.5 148.5 242.9 104.9 253.1C61.2 263.4 30.6 293.7 0 324L0 0Z" fill="#96446e"></path><path d="M243 0C220.8 23.1 198.5 46.2 190.8 79C183 111.8 189.7 154.2 171.8 171.8C153.9 189.4 111.4 182.1 78.6 189.9C45.9 197.6 22.9 220.3 0 243L0 0Z" fill="#d55e64"></path><path d="M162 0C147.2 15.4 132.4 30.8 127.2 52.7C122 74.5 126.5 102.8 114.6 114.6C102.6 126.3 74.3 121.4 52.4 126.6C30.6 131.7 15.3 146.9 0 162L0 0Z" fill="#f88f4a"></path><path d="M81 0C73.6 7.7 66.2 15.4 63.6 26.3C61 37.3 63.2 51.4 57.3 57.3C51.3 63.1 37.1 60.7 26.2 63.3C15.3 65.9 7.6 73.4 0 81L0 0Z" fill="#fbae3c"></path></g></svg>