<svg id="visual" viewBox="0 0 960 540" width="960" height="540" xmlns="http://www.w3.org/2000/svg" xmlns:xlink="http://www.w3.org/1999/xlink" version="1.1"><rect x="0" y="0" width="960" height="540" fill="#001220"></rect><defs><linearGradient id="grad1_0" x1="43.8%" y1="100%" x2="100%" y2="0%"><stop offset="14.444444444444446%" stop-color="#fbae3c" stop-opacity="1"></stop><stop offset="85.55555555555554%" stop-color="#fbae3c" stop-opacity="1"></stop></linearGradient></defs><defs><linearGradient id="grad1_1" x1="43.8%" y1="100%" x2="100%" y2="0%"><stop offset="14.444444444444446%" stop-color="#fbae3c" stop-opacity="1"></stop><stop offset="85.55555555555554%" stop-color="#eb7458" stop-opacity="1"></stop></linearGradient></defs><defs><linearGradient id="grad1_2" x1="43.8%" y1="100%" x2="100%" y2="0%"><stop offset="14.444444444444446%" stop-color="#b84e6c" stop-opacity="1"></stop><stop offset="85.55555555555554%" stop-color="#eb7458" stop-opacity="1"></stop></linearGradient></defs><defs><linearGradient id="grad1_3" x1="43.8%" y1="100%" x2="100%" y2="0%"><stop offset="14.444444444444446%" stop-color="#b84e6c" stop-opacity="1"></stop><stop offset="85.55555555555554%" stop-color="#713c69" stop-opacity="1"></stop></linearGradient></defs><defs><linearGradient id="grad1_4" x1="43.8%" y1="100%" x2="100%" y2="0%"><stop offset="14.444444444444446%" stop-color="#2d2b4c" stop-opacity="1"></stop><stop offset="85.55555555555554%" stop-color="#713c69" stop-opacity="1"></stop></linearGradient></defs><defs><linearGradient id="grad1_5" x1="43.8%" y1="100%" x2="100%" y2="0%"><stop offset="14.444444444444446%" stop-color="#2d2b4c" stop-opacity="1"></stop><stop offset="85.55555555555554%" stop-color="#001220" stop-opacity="1"></stop></linearGradient></defs><defs><linearGradient id="grad2_0" x1="0%" y1="100%" x2="56.3%" y2="0%"><stop offset="14.444444444444446%" stop-color="#fbae3c" stop-opacity="1"></stop><stop offset="85.55555555555554%" stop-color="#fbae3c" stop-opacity="1"></stop></linearGradient></defs><defs><linearGradient id="grad2_1" x1="0%" y1="100%" x2="56.3%" y2="0%"><stop offset="14.444444444444446%" stop-color="#eb7458" stop-opacity="1"></stop><stop offset="85.55555555555554%" stop-color="#fbae3c" stop-opacity="1"></stop></linearGradient></defs><defs><linearGradient id="grad2_2" x1="0%" y1="100%" x2="56.3%" y2="0%"><stop offset="14.444444444444446%" stop-color="#eb7458" stop-opacity="1"></stop><stop offset="85.55555555555554%" stop-color="#b84e6c" stop-opacity="1"></stop></linearGradient></defs><defs><linearGradient id="grad2_3" x1="0%" y1="100%" x2="56.3%" y2="0%"><stop offset="14.444444444444446%" stop-color="#713c69" stop-opacity="1"></stop><stop offset="85.55555555555554%" stop-color="#b84e6c" stop-opacity="1"></stop></linearGradient></defs><defs><linearGradient id="grad2_4" x1="0%" y1="100%" x2="56.3%" y2="0%"><stop offset="14.444444444444446%" stop-color="#713c69" stop-opacity="1"></stop><stop offset="85.55555555555554%" stop-color="#2d2b4c" stop-opacity="1"></stop></linearGradient></defs><defs><linearGradient id="grad2_5" x1="0%" y1="100%" x2="56.3%" y2="0%"><stop offset="14.444444444444446%" stop-color="#001220" stop-opacity="1"></stop><stop offset="85.55555555555554%" stop-color="#2d2b4c" stop-opacity="1"></stop></linearGradient></defs><g transform="translate(960, 540)"><path d="M-486 0C-438.5 -45.8 -391 -91.7 -375.1 -155.4C-359.2 -219.1 -374.9 -300.7 -343.7 -343.7C-312.4 -386.7 -234.2 -391.1 -169.1 -408.4C-104 -425.6 -52 -455.8 0 -486L0 0Z" fill="#131f37"></path><path d="M-405 0C-365.4 -38.2 -325.8 -76.4 -312.6 -129.5C-299.3 -182.6 -312.4 -250.5 -286.4 -286.4C-260.3 -322.2 -195.2 -325.9 -141 -340.3C-86.7 -354.7 -43.4 -379.9 0 -405L0 0Z" fill="#4d345e"></path><path d="M-324 0C-292.3 -30.6 -260.7 -61.1 -250.1 -103.6C-239.5 -146.1 -249.9 -200.4 -229.1 -229.1C-208.3 -257.8 -156.2 -260.7 -112.8 -272.2C-69.4 -283.8 -34.7 -303.9 0 -324L0 0Z" fill="#96446e"></path><path d="M-243 0C-219.2 -22.9 -195.5 -45.8 -187.5 -77.7C-179.6 -109.5 -187.4 -150.3 -171.8 -171.8C-156.2 -193.3 -117.1 -195.5 -84.6 -204.2C-52 -212.8 -26 -227.9 0 -243L0 0Z" fill="#d55e64"></path><path d="M-162 0C-146.2 -15.3 -130.3 -30.6 -125 -51.8C-119.7 -73 -125 -100.2 -114.6 -114.6C-104.1 -128.9 -78.1 -130.4 -56.4 -136.1C-34.7 -141.9 -17.3 -151.9 0 -162L0 0Z" fill="#f88f4a"></path><path d="M-81 0C-73.1 -7.6 -65.2 -15.3 -62.5 -25.9C-59.9 -36.5 -62.5 -50.1 -57.3 -57.3C-52.1 -64.4 -39 -65.2 -28.2 -68.1C-17.3 -70.9 -8.7 -76 0 -81L0 0Z" fill="#fbae3c"></path></g><g transform="translate(0, 0)"><path d="M486 0C484.4 68.6 482.8 137.2 449 186C415.2 234.8 349.2 263.8 299.8 299.8C250.4 335.8 217.5 378.9 170.3 411.1C123.1 443.3 61.5 464.7 0 486L0 0Z" fill="#131f37"></path><path d="M405 0C403.7 57.2 402.3 114.3 374.2 155C346 195.7 291 219.8 249.8 249.8C208.7 279.9 181.3 315.8 141.9 342.6C102.6 369.4 51.3 387.2 0 405L0 0Z" fill="#4d345e"></path><path d="M324 0C322.9 45.7 321.9 91.5 299.3 124C276.8 156.5 232.8 175.9 199.9 199.9C166.9 223.9 145 252.6 113.5 274.1C82.1 295.6 41 309.8 0 324L0 0Z" fill="#96446e"></path><path d="M243 0C242.2 34.3 241.4 68.6 224.5 93C207.6 117.4 174.6 131.9 149.9 149.9C125.2 167.9 108.8 189.5 85.1 205.6C61.5 221.7 30.8 232.3 0 243L0 0Z" fill="#d55e64"></path><path d="M162 0C161.5 22.9 160.9 45.7 149.7 62C138.4 78.3 116.4 87.9 99.9 99.9C83.5 111.9 72.5 126.3 56.8 137C41 147.8 20.5 154.9 0 162L0 0Z" fill="#f88f4a"></path><path d="M81 0C80.7 11.4 80.5 22.9 74.8 31C69.2 39.1 58.2 44 50 50C41.7 56 36.3 63.2 28.4 68.5C20.5 73.9 10.3 77.4 0 81L0 0Z" fill="#fbae3c"></path></g></svg>